<svg xmlns="http://www.w3.org/2000/svg" version="1.1" xmlns:xlink="http://www.w3.org/1999/xlink" xmlns:svgjs="http://svgjs.dev/svgjs" width="2000" height="1500" viewBox="0 0 2000 1500"><rect width="2000" height="1500" fill="#ffffff"></rect><g transform="matrix(0.75,0,0,0.75,249.090909090909,282.7536437246963)"><svg viewBox="0 0 396 247" data-background-color="#ffffff" preserveAspectRatio="xMidYMid meet" height="1247" width="2000" xmlns="http://www.w3.org/2000/svg" xmlns:xlink="http://www.w3.org/1999/xlink"><g id="tight-bounds" transform="matrix(1,0,0,1,0.2400000000000091,-0.09999999999999432)"><svg viewBox="0 0 395.52 247.2" height="247.2" width="395.52"><g><svg></svg></g><g><svg viewBox="0 0 395.52 247.2" height="247.2" width="395.52"><mask id="cf350f1f-f8dd-43b8-bb1f-f26660698f1b"><rect width="395.52" height="247.2" fill="white"></rect><g transform="matrix(1,0,0,1,109.44629268292682,37.08)" id="clone"><svg viewBox="0 0 176.62741463414633 173.04" height="173.04" width="176.62741463414633"><g><svg viewBox="0 0 176.62741463414633 173.04" height="173.04" width="176.62741463414633"><g><svg viewBox="0 0 176.62741463414636 173.04000000000002" height="173.04" width="176.62741463414633"><g><svg viewBox="0 0 176.62741463414636 173.04000000000002" height="173.04000000000002" width="176.62741463414636"><g id="SvgjsG1413"><svg viewBox="0 0 176.62741463414636 173.04000000000002" height="173.04000000000002" width="176.62741463414636" id="SvgjsSvg1412"><g><svg viewBox="0 0 176.62741463414636 173.04000000000002" height="173.04000000000002" width="176.62741463414636"><g transform="matrix(1,0,0,1,0,0)"><svg width="176.62741463414636" viewBox="-0.9500000000000002 -39 42.85 42" height="173.04000000000002" data-palette-color="#124948"><path d="M38.9-33.1L34.7-32.05 34.7-3.95 38.9-2.9 38.9 0 24 0 24-2.9 28.2-3.95 28.2-16.65 12.75-16.65 12.75-3.95 16.95-2.9 16.95 0 2.05 0 2.05-2.9 6.25-3.95 6.25-32.05 2.05-33.1 2.05-36 16.95-36 16.95-33.1 12.75-32.05 12.75-20.3 28.2-20.3 28.2-32.05 24-33.1 24-36 38.9-36 38.9-33.1Z" opacity="1" transform="matrix(1,0,0,1,0,0)" fill="black" class="wordmark-text-0" id="SvgjsPath1411" stroke-width="5" stroke="black" stroke-linejoin="round"></path></svg></g></svg></g></svg></g></svg></g><g></g></svg></g></svg></g></svg></g></mask><g mask="url(#cf350f1f-f8dd-43b8-bb1f-f26660698f1b)"><g><path d="M285.705 51.526l-20.047 5.011v134.126l20.047 5.011v13.843h-71.12v-13.843l20.048-5.011v-60.619h-73.746v60.619l20.048 5.011v13.843h-71.12v-13.843l20.047-5.011v-134.126l-20.047-5.011v-13.843h71.12v13.843l-20.048 5.011v56.085h73.746v-56.085l-20.048-5.011v-13.843h71.12z" fill="#124948" fill-rule="nonzero" stroke="none" stroke-width="1" stroke-linecap="butt" stroke-linejoin="miter" stroke-miterlimit="10" stroke-dasharray="" stroke-dashoffset="0" font-family="none" font-weight="none" font-size="none" text-anchor="none" style="mix-blend-mode: normal" data-fill-palette-color="tertiary"></path></g></g><g transform="matrix(1,0,0,1,109.44629268292682,37.08)"><svg viewBox="0 0 176.62741463414633 173.04" height="173.04" width="176.62741463414633"><g><svg viewBox="0 0 176.62741463414633 173.04" height="173.04" width="176.62741463414633"><g><svg viewBox="0 0 176.62741463414636 173.04000000000002" height="173.04" width="176.62741463414633"><g><svg viewBox="0 0 176.62741463414636 173.04000000000002" height="173.04000000000002" width="176.62741463414636"><g id="textblocktransform"><svg viewBox="0 0 176.62741463414636 173.04000000000002" height="173.04000000000002" width="176.62741463414636" id="textblock"><g><svg viewBox="0 0 176.62741463414636 173.04000000000002" height="173.04000000000002" width="176.62741463414636"><g transform="matrix(1,0,0,1,0,0)"><svg width="176.62741463414636" viewBox="-0.9500000000000002 -39 42.85 42" height="173.04000000000002" data-palette-color="#124948"><path d="M38.9-33.1L34.7-32.05 34.7-3.95 38.9-2.9 38.9 0 24 0 24-2.9 28.2-3.95 28.2-16.65 12.75-16.65 12.75-3.95 16.95-2.9 16.95 0 2.05 0 2.05-2.9 6.25-3.95 6.25-32.05 2.05-33.1 2.05-36 16.95-36 16.95-33.1 12.75-32.05 12.75-20.3 28.2-20.3 28.2-32.05 24-33.1 24-36 38.9-36 38.9-33.1Z" opacity="1" transform="matrix(1,0,0,1,0,0)" fill="#124948" class="wordmark-text-0" data-fill-palette-color="primary" id="text-0"></path></svg></g></svg></g></svg></g></svg></g><g></g></svg></g></svg></g></svg></g></svg></g><defs></defs></svg><rect width="395.52" height="247.2" fill="none" stroke="none" visibility="hidden"></rect></g></svg></g></svg>